<mxfile host="Electron" modified="2024-03-18T04:40:21.008Z" agent="Mozilla/5.0 (Windows NT 10.0; Win64; x64) AppleWebKit/537.36 (KHTML, like Gecko) draw.io/23.1.5 Chrome/120.0.6099.109 Electron/28.1.0 Safari/537.36" etag="NZC5OBw0FOhGLgUH-fhz" version="23.1.5" type="device">
  <diagram name="Страница — 1" id="PfFH6i_BaaujdTsYVVpa">
    <mxGraphModel dx="858" dy="1505" grid="1" gridSize="10" guides="1" tooltips="1" connect="1" arrows="1" fold="1" page="1" pageScale="1" pageWidth="827" pageHeight="1169" math="0" shadow="0">
      <root>
        <mxCell id="0" />
        <mxCell id="1" parent="0" />
        <mxCell id="BRxC_UPfbR1JIoKvhQ0Q-1" value="" style="strokeWidth=2;html=1;shape=mxgraph.flowchart.annotation_1;align=left;pointerEvents=1;" vertex="1" parent="1">
          <mxGeometry x="40" y="40" width="50" height="80" as="geometry" />
        </mxCell>
        <mxCell id="BRxC_UPfbR1JIoKvhQ0Q-2" value="&lt;div&gt;#pragma once&lt;/div&gt;&lt;div&gt;#include &amp;lt;vector&amp;gt;&lt;/div&gt;&lt;div&gt;&lt;br&gt;&lt;/div&gt;&lt;div&gt;using namespace std;&lt;/div&gt;" style="text;strokeColor=none;fillColor=none;align=left;verticalAlign=middle;spacingLeft=4;spacingRight=4;overflow=hidden;points=[[0,0.5],[1,0.5]];portConstraint=eastwest;rotatable=0;whiteSpace=wrap;html=1;" vertex="1" parent="1">
          <mxGeometry x="40" y="40" width="220" height="80" as="geometry" />
        </mxCell>
        <mxCell id="BRxC_UPfbR1JIoKvhQ0Q-4" style="edgeStyle=orthogonalEdgeStyle;rounded=0;orthogonalLoop=1;jettySize=auto;html=1;exitX=0.5;exitY=1;exitDx=0;exitDy=0;" edge="1" parent="1" source="BRxC_UPfbR1JIoKvhQ0Q-3" target="BRxC_UPfbR1JIoKvhQ0Q-5">
          <mxGeometry relative="1" as="geometry">
            <mxPoint x="240.37037037037032" y="220.0000000000001" as="targetPoint" />
          </mxGeometry>
        </mxCell>
        <mxCell id="BRxC_UPfbR1JIoKvhQ0Q-3" value="void HoarSort(vector&amp;lt;int&amp;gt;&amp;amp; vect, int beginIndex, int endIndex)" style="ellipse;whiteSpace=wrap;html=1;" vertex="1" parent="1">
          <mxGeometry x="120" y="160" width="240" height="40" as="geometry" />
        </mxCell>
        <mxCell id="BRxC_UPfbR1JIoKvhQ0Q-6" style="edgeStyle=orthogonalEdgeStyle;rounded=0;orthogonalLoop=1;jettySize=auto;html=1;exitX=0.5;exitY=1;exitDx=0;exitDy=0;" edge="1" parent="1" source="BRxC_UPfbR1JIoKvhQ0Q-5" target="BRxC_UPfbR1JIoKvhQ0Q-7">
          <mxGeometry relative="1" as="geometry">
            <mxPoint x="240.37037037037032" y="300.0000000000001" as="targetPoint" />
          </mxGeometry>
        </mxCell>
        <mxCell id="BRxC_UPfbR1JIoKvhQ0Q-5" value="int leftIndex = beginIndex;" style="rounded=1;whiteSpace=wrap;html=1;absoluteArcSize=1;arcSize=14;strokeWidth=2;" vertex="1" parent="1">
          <mxGeometry x="140.37" y="220" width="199.26" height="40" as="geometry" />
        </mxCell>
        <mxCell id="BRxC_UPfbR1JIoKvhQ0Q-9" value="" style="edgeStyle=orthogonalEdgeStyle;rounded=0;orthogonalLoop=1;jettySize=auto;html=1;" edge="1" parent="1" source="BRxC_UPfbR1JIoKvhQ0Q-7" target="BRxC_UPfbR1JIoKvhQ0Q-8">
          <mxGeometry relative="1" as="geometry" />
        </mxCell>
        <mxCell id="BRxC_UPfbR1JIoKvhQ0Q-7" value="int rightIndex = endIndex;" style="rounded=1;whiteSpace=wrap;html=1;absoluteArcSize=1;arcSize=14;strokeWidth=2;" vertex="1" parent="1">
          <mxGeometry x="140.74" y="280" width="199.26" height="40" as="geometry" />
        </mxCell>
        <mxCell id="BRxC_UPfbR1JIoKvhQ0Q-11" style="edgeStyle=orthogonalEdgeStyle;rounded=0;orthogonalLoop=1;jettySize=auto;html=1;exitX=0.5;exitY=1;exitDx=0;exitDy=0;entryX=0.5;entryY=0;entryDx=0;entryDy=0;" edge="1" parent="1" source="BRxC_UPfbR1JIoKvhQ0Q-8" target="BRxC_UPfbR1JIoKvhQ0Q-10">
          <mxGeometry relative="1" as="geometry" />
        </mxCell>
        <mxCell id="BRxC_UPfbR1JIoKvhQ0Q-8" value="int pivot = vect[(beginIndex + endIndex) / 2];" style="rounded=1;whiteSpace=wrap;html=1;absoluteArcSize=1;arcSize=14;strokeWidth=2;" vertex="1" parent="1">
          <mxGeometry x="140.37" y="340" width="199.26" height="40" as="geometry" />
        </mxCell>
        <mxCell id="BRxC_UPfbR1JIoKvhQ0Q-12" style="edgeStyle=orthogonalEdgeStyle;rounded=0;orthogonalLoop=1;jettySize=auto;html=1;exitX=0.5;exitY=1;exitDx=0;exitDy=0;" edge="1" parent="1" source="BRxC_UPfbR1JIoKvhQ0Q-10">
          <mxGeometry relative="1" as="geometry">
            <mxPoint x="240" y="480" as="targetPoint" />
          </mxGeometry>
        </mxCell>
        <mxCell id="BRxC_UPfbR1JIoKvhQ0Q-10" value="do" style="rounded=1;whiteSpace=wrap;html=1;absoluteArcSize=1;arcSize=14;strokeWidth=2;" vertex="1" parent="1">
          <mxGeometry x="190.37" y="400" width="100" height="40" as="geometry" />
        </mxCell>
        <mxCell id="BRxC_UPfbR1JIoKvhQ0Q-13" style="edgeStyle=orthogonalEdgeStyle;rounded=0;orthogonalLoop=1;jettySize=auto;html=1;exitX=1;exitY=0.5;exitDx=0;exitDy=0;exitPerimeter=0;entryX=0.5;entryY=0;entryDx=0;entryDy=0;entryPerimeter=0;" edge="1" source="BRxC_UPfbR1JIoKvhQ0Q-15" parent="1" target="BRxC_UPfbR1JIoKvhQ0Q-24">
          <mxGeometry relative="1" as="geometry">
            <mxPoint x="380" y="580" as="targetPoint" />
            <Array as="points">
              <mxPoint x="380" y="510" />
              <mxPoint x="380" y="650" />
              <mxPoint x="240" y="650" />
            </Array>
          </mxGeometry>
        </mxCell>
        <mxCell id="BRxC_UPfbR1JIoKvhQ0Q-14" style="edgeStyle=orthogonalEdgeStyle;rounded=0;orthogonalLoop=1;jettySize=auto;html=1;exitX=0.5;exitY=1;exitDx=0;exitDy=0;exitPerimeter=0;" edge="1" source="BRxC_UPfbR1JIoKvhQ0Q-15" parent="1">
          <mxGeometry relative="1" as="geometry">
            <mxPoint x="240" y="580" as="targetPoint" />
          </mxGeometry>
        </mxCell>
        <mxCell id="BRxC_UPfbR1JIoKvhQ0Q-15" value="while ((vect[leftIndex] &amp;lt; pivot) &lt;br&gt;&amp;amp;&amp;amp; (leftIndex &amp;lt; endIndex))" style="strokeWidth=2;html=1;shape=mxgraph.flowchart.decision;whiteSpace=wrap;" vertex="1" parent="1">
          <mxGeometry x="130" y="470" width="220" height="80" as="geometry" />
        </mxCell>
        <mxCell id="BRxC_UPfbR1JIoKvhQ0Q-16" value="1" style="text;html=1;strokeColor=none;fillColor=none;align=center;verticalAlign=middle;whiteSpace=wrap;rounded=0;" vertex="1" parent="1">
          <mxGeometry x="210" y="540" width="30" height="30" as="geometry" />
        </mxCell>
        <mxCell id="BRxC_UPfbR1JIoKvhQ0Q-17" value="0" style="text;html=1;strokeColor=none;fillColor=none;align=center;verticalAlign=middle;whiteSpace=wrap;rounded=0;" vertex="1" parent="1">
          <mxGeometry x="339.28999999999996" y="480" width="30" height="30" as="geometry" />
        </mxCell>
        <mxCell id="BRxC_UPfbR1JIoKvhQ0Q-18" value="{" style="text;html=1;strokeColor=none;fillColor=none;align=center;verticalAlign=middle;whiteSpace=wrap;rounded=0;" vertex="1" parent="1">
          <mxGeometry x="240" y="540" width="30" height="30" as="geometry" />
        </mxCell>
        <mxCell id="BRxC_UPfbR1JIoKvhQ0Q-20" value="++leftIndex;" style="rounded=1;whiteSpace=wrap;html=1;absoluteArcSize=1;arcSize=14;strokeWidth=2;" vertex="1" parent="1">
          <mxGeometry x="190.37" y="580" width="100" height="40" as="geometry" />
        </mxCell>
        <mxCell id="BRxC_UPfbR1JIoKvhQ0Q-21" style="edgeStyle=orthogonalEdgeStyle;rounded=0;orthogonalLoop=1;jettySize=auto;html=1;exitX=0.5;exitY=1;exitDx=0;exitDy=0;entryX=0;entryY=0.5;entryDx=0;entryDy=0;entryPerimeter=0;" edge="1" parent="1" source="BRxC_UPfbR1JIoKvhQ0Q-20" target="BRxC_UPfbR1JIoKvhQ0Q-15">
          <mxGeometry relative="1" as="geometry" />
        </mxCell>
        <mxCell id="BRxC_UPfbR1JIoKvhQ0Q-22" style="edgeStyle=orthogonalEdgeStyle;rounded=0;orthogonalLoop=1;jettySize=auto;html=1;exitX=1;exitY=0.5;exitDx=0;exitDy=0;exitPerimeter=0;" edge="1" parent="1" source="BRxC_UPfbR1JIoKvhQ0Q-24">
          <mxGeometry relative="1" as="geometry">
            <mxPoint x="380" y="840" as="targetPoint" />
            <Array as="points">
              <mxPoint x="379.95" y="700" />
            </Array>
          </mxGeometry>
        </mxCell>
        <mxCell id="BRxC_UPfbR1JIoKvhQ0Q-23" style="edgeStyle=orthogonalEdgeStyle;rounded=0;orthogonalLoop=1;jettySize=auto;html=1;exitX=0.5;exitY=1;exitDx=0;exitDy=0;exitPerimeter=0;" edge="1" parent="1" source="BRxC_UPfbR1JIoKvhQ0Q-24">
          <mxGeometry relative="1" as="geometry">
            <mxPoint x="239.95" y="770" as="targetPoint" />
          </mxGeometry>
        </mxCell>
        <mxCell id="BRxC_UPfbR1JIoKvhQ0Q-24" value="while ((vect[rightIndex] &amp;gt; pivot) &lt;br&gt;&amp;amp;&amp;amp; (rightIndex &amp;gt; beginIndex))" style="strokeWidth=2;html=1;shape=mxgraph.flowchart.decision;whiteSpace=wrap;" vertex="1" parent="1">
          <mxGeometry x="129.95" y="660" width="220" height="80" as="geometry" />
        </mxCell>
        <mxCell id="BRxC_UPfbR1JIoKvhQ0Q-25" value="1" style="text;html=1;strokeColor=none;fillColor=none;align=center;verticalAlign=middle;whiteSpace=wrap;rounded=0;" vertex="1" parent="1">
          <mxGeometry x="209.95" y="730" width="30" height="30" as="geometry" />
        </mxCell>
        <mxCell id="BRxC_UPfbR1JIoKvhQ0Q-26" value="0" style="text;html=1;strokeColor=none;fillColor=none;align=center;verticalAlign=middle;whiteSpace=wrap;rounded=0;" vertex="1" parent="1">
          <mxGeometry x="339.23999999999995" y="670" width="30" height="30" as="geometry" />
        </mxCell>
        <mxCell id="BRxC_UPfbR1JIoKvhQ0Q-27" value="{" style="text;html=1;strokeColor=none;fillColor=none;align=center;verticalAlign=middle;whiteSpace=wrap;rounded=0;" vertex="1" parent="1">
          <mxGeometry x="239.95" y="730" width="30" height="30" as="geometry" />
        </mxCell>
        <mxCell id="BRxC_UPfbR1JIoKvhQ0Q-28" value="--rightIndex;" style="rounded=1;whiteSpace=wrap;html=1;absoluteArcSize=1;arcSize=14;strokeWidth=2;" vertex="1" parent="1">
          <mxGeometry x="190.32" y="770" width="100" height="40" as="geometry" />
        </mxCell>
        <mxCell id="BRxC_UPfbR1JIoKvhQ0Q-29" style="edgeStyle=orthogonalEdgeStyle;rounded=0;orthogonalLoop=1;jettySize=auto;html=1;exitX=0.5;exitY=1;exitDx=0;exitDy=0;entryX=0;entryY=0.5;entryDx=0;entryDy=0;entryPerimeter=0;" edge="1" parent="1" source="BRxC_UPfbR1JIoKvhQ0Q-28" target="BRxC_UPfbR1JIoKvhQ0Q-24">
          <mxGeometry relative="1" as="geometry" />
        </mxCell>
        <mxCell id="BRxC_UPfbR1JIoKvhQ0Q-31" style="edgeStyle=orthogonalEdgeStyle;rounded=0;orthogonalLoop=1;jettySize=auto;html=1;exitX=0;exitY=0.5;exitDx=0;exitDy=0;exitPerimeter=0;" edge="1" source="BRxC_UPfbR1JIoKvhQ0Q-33" parent="1">
          <mxGeometry relative="1" as="geometry">
            <mxPoint x="239.95" y="910" as="targetPoint" />
          </mxGeometry>
        </mxCell>
        <mxCell id="BRxC_UPfbR1JIoKvhQ0Q-32" style="edgeStyle=orthogonalEdgeStyle;rounded=0;orthogonalLoop=1;jettySize=auto;html=1;exitX=1;exitY=0.5;exitDx=0;exitDy=0;exitPerimeter=0;" edge="1" source="BRxC_UPfbR1JIoKvhQ0Q-33" parent="1">
          <mxGeometry relative="1" as="geometry">
            <mxPoint x="380" y="980" as="targetPoint" />
            <Array as="points">
              <mxPoint x="500" y="870" />
              <mxPoint x="500" y="980" />
              <mxPoint x="380" y="980" />
            </Array>
          </mxGeometry>
        </mxCell>
        <mxCell id="BRxC_UPfbR1JIoKvhQ0Q-33" value="if (leftIndex &amp;lt;= rightIndex)" style="strokeWidth=2;html=1;shape=mxgraph.flowchart.decision;whiteSpace=wrap;" vertex="1" parent="1">
          <mxGeometry x="279.95" y="840" width="200" height="60" as="geometry" />
        </mxCell>
        <mxCell id="BRxC_UPfbR1JIoKvhQ0Q-34" value="1" style="text;html=1;strokeColor=none;fillColor=none;align=center;verticalAlign=middle;whiteSpace=wrap;rounded=0;" vertex="1" parent="1">
          <mxGeometry x="249.95" y="840" width="30" height="30" as="geometry" />
        </mxCell>
        <mxCell id="BRxC_UPfbR1JIoKvhQ0Q-35" value="0" style="text;html=1;strokeColor=none;fillColor=none;align=center;verticalAlign=middle;whiteSpace=wrap;rounded=0;" vertex="1" parent="1">
          <mxGeometry x="479.95" y="840" width="30" height="30" as="geometry" />
        </mxCell>
        <mxCell id="BRxC_UPfbR1JIoKvhQ0Q-43" style="edgeStyle=orthogonalEdgeStyle;rounded=0;orthogonalLoop=1;jettySize=auto;html=1;exitX=0.5;exitY=1;exitDx=0;exitDy=0;" edge="1" parent="1" source="BRxC_UPfbR1JIoKvhQ0Q-42">
          <mxGeometry relative="1" as="geometry">
            <mxPoint x="380" y="980" as="targetPoint" />
            <Array as="points">
              <mxPoint x="240" y="980" />
            </Array>
          </mxGeometry>
        </mxCell>
        <mxCell id="BRxC_UPfbR1JIoKvhQ0Q-42" value="swap(vect[leftIndex++], vect[rightIndex--]);" style="shape=parallelogram;html=1;strokeWidth=2;perimeter=parallelogramPerimeter;whiteSpace=wrap;rounded=1;arcSize=12;size=0.16666666666666666;" vertex="1" parent="1">
          <mxGeometry x="149.9" y="910" width="180.1" height="40" as="geometry" />
        </mxCell>
        <mxCell id="BRxC_UPfbR1JIoKvhQ0Q-44" value="" style="endArrow=classic;html=1;rounded=0;" edge="1" parent="1">
          <mxGeometry width="50" height="50" relative="1" as="geometry">
            <mxPoint x="380" y="980" as="sourcePoint" />
            <mxPoint x="380" y="1010" as="targetPoint" />
          </mxGeometry>
        </mxCell>
        <mxCell id="BRxC_UPfbR1JIoKvhQ0Q-45" style="edgeStyle=orthogonalEdgeStyle;rounded=0;orthogonalLoop=1;jettySize=auto;html=1;exitX=1;exitY=0.5;exitDx=0;exitDy=0;exitPerimeter=0;" edge="1" source="BRxC_UPfbR1JIoKvhQ0Q-47" parent="1">
          <mxGeometry relative="1" as="geometry">
            <mxPoint x="519.58" y="1110" as="targetPoint" />
            <Array as="points">
              <mxPoint x="519.58" y="1040" />
            </Array>
          </mxGeometry>
        </mxCell>
        <mxCell id="BRxC_UPfbR1JIoKvhQ0Q-46" style="edgeStyle=orthogonalEdgeStyle;rounded=0;orthogonalLoop=1;jettySize=auto;html=1;exitX=0;exitY=0.5;exitDx=0;exitDy=0;exitPerimeter=0;entryX=0;entryY=0.5;entryDx=0;entryDy=0;" edge="1" source="BRxC_UPfbR1JIoKvhQ0Q-47" parent="1" target="BRxC_UPfbR1JIoKvhQ0Q-50">
          <mxGeometry relative="1" as="geometry">
            <mxPoint x="379.58" y="1110" as="targetPoint" />
            <Array as="points">
              <mxPoint x="90" y="1040" />
              <mxPoint x="90" y="455" />
            </Array>
          </mxGeometry>
        </mxCell>
        <mxCell id="BRxC_UPfbR1JIoKvhQ0Q-47" value="while (leftIndex &amp;lt;= rightIndex);" style="strokeWidth=2;html=1;shape=mxgraph.flowchart.decision;whiteSpace=wrap;" vertex="1" parent="1">
          <mxGeometry x="269.9" y="1010" width="220.1" height="60" as="geometry" />
        </mxCell>
        <mxCell id="BRxC_UPfbR1JIoKvhQ0Q-48" value="1" style="text;html=1;strokeColor=none;fillColor=none;align=center;verticalAlign=middle;whiteSpace=wrap;rounded=0;" vertex="1" parent="1">
          <mxGeometry x="249.95" y="1010" width="30" height="30" as="geometry" />
        </mxCell>
        <mxCell id="BRxC_UPfbR1JIoKvhQ0Q-49" value="0" style="text;html=1;strokeColor=none;fillColor=none;align=center;verticalAlign=middle;whiteSpace=wrap;rounded=0;" vertex="1" parent="1">
          <mxGeometry x="478.86999999999995" y="1010" width="30" height="30" as="geometry" />
        </mxCell>
        <mxCell id="BRxC_UPfbR1JIoKvhQ0Q-50" value="{" style="text;html=1;strokeColor=none;fillColor=none;align=center;verticalAlign=middle;whiteSpace=wrap;rounded=0;" vertex="1" parent="1">
          <mxGeometry x="239.95" y="440" width="30" height="30" as="geometry" />
        </mxCell>
        <mxCell id="BRxC_UPfbR1JIoKvhQ0Q-52" value="}" style="text;html=1;strokeColor=none;fillColor=none;align=center;verticalAlign=middle;whiteSpace=wrap;rounded=0;" vertex="1" parent="1">
          <mxGeometry x="380" y="980" width="30" height="30" as="geometry" />
        </mxCell>
        <mxCell id="BRxC_UPfbR1JIoKvhQ0Q-53" value="}" style="text;html=1;strokeColor=none;fillColor=none;align=center;verticalAlign=middle;whiteSpace=wrap;rounded=0;" vertex="1" parent="1">
          <mxGeometry x="380" y="510" width="30" height="30" as="geometry" />
        </mxCell>
        <mxCell id="BRxC_UPfbR1JIoKvhQ0Q-54" value="}" style="text;html=1;strokeColor=none;fillColor=none;align=center;verticalAlign=middle;whiteSpace=wrap;rounded=0;" vertex="1" parent="1">
          <mxGeometry x="380" y="700" width="30" height="30" as="geometry" />
        </mxCell>
        <mxCell id="BRxC_UPfbR1JIoKvhQ0Q-55" value="&lt;div&gt;void HoarSort(vector&amp;lt;int&amp;gt;&amp;amp; vect) {&lt;/div&gt;&lt;div&gt;&amp;nbsp; &amp;nbsp; if (vect.size() &amp;gt; 1) {&lt;span style=&quot;&quot;&gt;&lt;/span&gt;&lt;/div&gt;&lt;div&gt;&lt;span style=&quot;&quot;&gt;&lt;span style=&quot;&quot;&gt;&lt;span style=&quot;white-space: pre;&quot;&gt;&amp;nbsp;&amp;nbsp;&amp;nbsp;&amp;nbsp;&lt;/span&gt;&lt;span style=&quot;white-space: pre;&quot;&gt;&amp;nbsp;&amp;nbsp;&amp;nbsp;&amp;nbsp;&lt;/span&gt;&lt;/span&gt;HoarSort(vect, 0, vect.size() - 1);&lt;/span&gt;&lt;/div&gt;&lt;div&gt;&lt;span style=&quot;&quot;&gt;&lt;span style=&quot;&quot;&gt;&lt;span style=&quot;white-space: pre;&quot;&gt;&amp;nbsp;&amp;nbsp;&amp;nbsp;&amp;nbsp;&lt;/span&gt;&lt;/span&gt;}&lt;/span&gt;&lt;/div&gt;&lt;div&gt;}&lt;/div&gt;" style="shape=process;whiteSpace=wrap;html=1;backgroundOutline=1;align=left;" vertex="1" parent="1">
          <mxGeometry x="400" y="160" width="300" height="90" as="geometry" />
        </mxCell>
        <mxCell id="BRxC_UPfbR1JIoKvhQ0Q-56" style="edgeStyle=orthogonalEdgeStyle;rounded=0;orthogonalLoop=1;jettySize=auto;html=1;exitX=0;exitY=0.5;exitDx=0;exitDy=0;exitPerimeter=0;" edge="1" source="BRxC_UPfbR1JIoKvhQ0Q-58" parent="1">
          <mxGeometry relative="1" as="geometry">
            <mxPoint x="380" y="1180" as="targetPoint" />
          </mxGeometry>
        </mxCell>
        <mxCell id="BRxC_UPfbR1JIoKvhQ0Q-57" style="edgeStyle=orthogonalEdgeStyle;rounded=0;orthogonalLoop=1;jettySize=auto;html=1;exitX=1;exitY=0.5;exitDx=0;exitDy=0;exitPerimeter=0;" edge="1" source="BRxC_UPfbR1JIoKvhQ0Q-58" parent="1">
          <mxGeometry relative="1" as="geometry">
            <mxPoint x="520" y="1240" as="targetPoint" />
            <Array as="points">
              <mxPoint x="640" y="1140" />
              <mxPoint x="640" y="1240" />
            </Array>
          </mxGeometry>
        </mxCell>
        <mxCell id="BRxC_UPfbR1JIoKvhQ0Q-58" value="if (rightIndex &amp;gt; beginIndex)" style="strokeWidth=2;html=1;shape=mxgraph.flowchart.decision;whiteSpace=wrap;" vertex="1" parent="1">
          <mxGeometry x="420" y="1110" width="200" height="60" as="geometry" />
        </mxCell>
        <mxCell id="BRxC_UPfbR1JIoKvhQ0Q-59" value="1" style="text;html=1;strokeColor=none;fillColor=none;align=center;verticalAlign=middle;whiteSpace=wrap;rounded=0;" vertex="1" parent="1">
          <mxGeometry x="390" y="1110" width="30" height="30" as="geometry" />
        </mxCell>
        <mxCell id="BRxC_UPfbR1JIoKvhQ0Q-60" value="0" style="text;html=1;strokeColor=none;fillColor=none;align=center;verticalAlign=middle;whiteSpace=wrap;rounded=0;" vertex="1" parent="1">
          <mxGeometry x="620" y="1110" width="30" height="30" as="geometry" />
        </mxCell>
        <mxCell id="BRxC_UPfbR1JIoKvhQ0Q-62" style="edgeStyle=orthogonalEdgeStyle;rounded=0;orthogonalLoop=1;jettySize=auto;html=1;exitX=0.5;exitY=1;exitDx=0;exitDy=0;" edge="1" parent="1" source="BRxC_UPfbR1JIoKvhQ0Q-61">
          <mxGeometry relative="1" as="geometry">
            <mxPoint x="520" y="1240" as="targetPoint" />
          </mxGeometry>
        </mxCell>
        <mxCell id="BRxC_UPfbR1JIoKvhQ0Q-61" value="HoarSort(vect, beginIndex, rightIndex);" style="shape=parallelogram;html=1;strokeWidth=2;perimeter=parallelogramPerimeter;whiteSpace=wrap;rounded=1;arcSize=12;size=0.16666666666666666;" vertex="1" parent="1">
          <mxGeometry x="240" y="1180" width="280" height="40" as="geometry" />
        </mxCell>
        <mxCell id="BRxC_UPfbR1JIoKvhQ0Q-68" style="edgeStyle=orthogonalEdgeStyle;rounded=0;orthogonalLoop=1;jettySize=auto;html=1;exitX=0;exitY=0.5;exitDx=0;exitDy=0;exitPerimeter=0;" edge="1" parent="1" source="BRxC_UPfbR1JIoKvhQ0Q-70">
          <mxGeometry relative="1" as="geometry">
            <mxPoint x="380" y="1330" as="targetPoint" />
          </mxGeometry>
        </mxCell>
        <mxCell id="BRxC_UPfbR1JIoKvhQ0Q-69" style="edgeStyle=orthogonalEdgeStyle;rounded=0;orthogonalLoop=1;jettySize=auto;html=1;exitX=1;exitY=0.5;exitDx=0;exitDy=0;exitPerimeter=0;" edge="1" parent="1" source="BRxC_UPfbR1JIoKvhQ0Q-70">
          <mxGeometry relative="1" as="geometry">
            <mxPoint x="520" y="1390" as="targetPoint" />
            <Array as="points">
              <mxPoint x="640" y="1290" />
              <mxPoint x="640" y="1390" />
            </Array>
          </mxGeometry>
        </mxCell>
        <mxCell id="BRxC_UPfbR1JIoKvhQ0Q-70" value="if (leftIndex &amp;lt; endIndex)" style="strokeWidth=2;html=1;shape=mxgraph.flowchart.decision;whiteSpace=wrap;" vertex="1" parent="1">
          <mxGeometry x="420" y="1260" width="200" height="60" as="geometry" />
        </mxCell>
        <mxCell id="BRxC_UPfbR1JIoKvhQ0Q-71" value="1" style="text;html=1;strokeColor=none;fillColor=none;align=center;verticalAlign=middle;whiteSpace=wrap;rounded=0;" vertex="1" parent="1">
          <mxGeometry x="390" y="1260" width="30" height="30" as="geometry" />
        </mxCell>
        <mxCell id="BRxC_UPfbR1JIoKvhQ0Q-72" value="0" style="text;html=1;strokeColor=none;fillColor=none;align=center;verticalAlign=middle;whiteSpace=wrap;rounded=0;" vertex="1" parent="1">
          <mxGeometry x="620" y="1260" width="30" height="30" as="geometry" />
        </mxCell>
        <mxCell id="BRxC_UPfbR1JIoKvhQ0Q-73" style="edgeStyle=orthogonalEdgeStyle;rounded=0;orthogonalLoop=1;jettySize=auto;html=1;exitX=0.5;exitY=1;exitDx=0;exitDy=0;" edge="1" parent="1" source="BRxC_UPfbR1JIoKvhQ0Q-74">
          <mxGeometry relative="1" as="geometry">
            <mxPoint x="520" y="1390" as="targetPoint" />
          </mxGeometry>
        </mxCell>
        <mxCell id="BRxC_UPfbR1JIoKvhQ0Q-74" value="HoarSort(vect, leftIndex, endIndex);" style="shape=parallelogram;html=1;strokeWidth=2;perimeter=parallelogramPerimeter;whiteSpace=wrap;rounded=1;arcSize=12;size=0.16666666666666666;" vertex="1" parent="1">
          <mxGeometry x="240" y="1330" width="280" height="40" as="geometry" />
        </mxCell>
        <mxCell id="BRxC_UPfbR1JIoKvhQ0Q-75" value="" style="endArrow=classic;html=1;rounded=0;entryX=0.5;entryY=0;entryDx=0;entryDy=0;entryPerimeter=0;" edge="1" parent="1" target="BRxC_UPfbR1JIoKvhQ0Q-70">
          <mxGeometry width="50" height="50" relative="1" as="geometry">
            <mxPoint x="520" y="1240" as="sourcePoint" />
            <mxPoint x="530.5900000000001" y="1320" as="targetPoint" />
          </mxGeometry>
        </mxCell>
      </root>
    </mxGraphModel>
  </diagram>
</mxfile>
